<svg xmlns="http://www.w3.org/2000/svg" viewBox="0 0 216.4 232"><defs><style>.a{fill:#f20487;}</style></defs><title>_logo</title><path class="a" d="M29.15,133.92c-9.44-24.18-16.4-58.41,3.29-79.68C49,36.36,84,31.49,104.06,45.92c8.14,5.84,13,14.87,16,25a81.1,81.1,0,0,1,15.22-11.58c15.7-9.07,52-17.88,62.26,3.19,11.37,23.36-5.32,52.69-19.86,70a280.4,280.4,0,0,1-61.07,54.11,40.13,40.13,0,0,1-7.58,3.81c-.21,2.09-2,4.28-4.94,6.13-7.71,4.79-20.13,4.8-28.48,2C50.06,190.05,38.13,156.94,29.15,133.92Z"/></svg>