<svg display="none" xmlns="http://www.w3.org/2000/svg">
 <symbol id="mastodon-svg-logo-full" viewBox="0 0 713.36 175.87" id=".27141821926458265" xmlns="http://www.w3.org/2000/svg">
 <path class="ast0" d="M145.23 96.34c-.91 1.13-3.59 1.19-4.86.9-8.31-1.92-16.27 1.6-22.91 6.54 4.05 6.38 8 12.78 11.03 19.76 1.88 4.33 4.16 9.6 3.24 14.42-.96 5.04-3.88 9.41-6.95 13.41-5.23 6.83-14.98 9.45-23.22 8.05-8.92-1.52-14.61-8.16-14.29-17.28.3-8.76 4.37-17.66 9.21-24.82.35-.52.71-1.03 1.08-1.55-5.79-7.17-11.42-14.45-16.17-22.38-4.88-8.15-9.47-18.31-8.66-28.01.22-2.64.68-5.42 1.5-7.95.72-2.23 2.29-4.27 3.68-6.15 2.95-4 6.51-7.43 11.03-9.61 8.13-3.92 17.52-4.45 24.91 1.38 7.07 5.59 8.83 14.9 10.21 23.31.33 2-6.65 2.7-7.04.49-1.02-5.74-2.15-11.61-5.3-16.63-1.45-2.31-3.27-4.3-5.56-5.78a11.97 11.97 0 0 0-3.44-1.54c-.5-.13-1.11-.34-1.67-.33-.05.04-.13.09-.27.19-2.86 2.04-2.69 8.02-2.26 11.06.78 5.44 1.13 10.71 2.48 16.1 2.5 9.97 6.92 18.7 12.37 27.39.5.8 1.01 1.59 1.51 2.39 8.73-5.25 18.82-7.85 28.93-5.39 1.12.29 2.4.81 1.42 2.03zm-28.55 46.07c-3.83-7.8-9.32-14.6-14.81-21.31a58.337 58.337 0 0 0-5.2 11.5c-2.59 7.88-3.41 19.48 6.03 23.12 3.77 1.45 8 .82 11.29-1.52 1.62-1.15 3.19-2.8 3.98-4.64.93-2.16-.34-5.21-1.29-7.15z" fill="#f20487"/>
 <path class="ast0" d="M240.81 101.34c-.93 1.16-3.64 1.19-4.94.91-6.24-1.36-12.22-3.88-17.41-7.41-.17.78-.33 1.56-.51 2.34-2.02 8.75-4.34 17.95-8.87 25.78-1.1 1.9-2.41 3.61-3.24 5.65-.65 1.6-1.53 2.6-3.09 3.36-4.67 2.27-12.13 2.03-15.62-2.25-2.75-3.38-3.77-8.46-4.8-12.59-.76-3.03-1.36-6.08-1.8-9.17-.09.21-.19.41-.28.61-3.63 7.87-7.72 17.08-14.87 22.43-3.57 2.68-8.17 3.57-12.52 2.67-5.1-1.05-7.97-4.52-10.12-9.03-4.5-9.45-5.4-20.37-5.35-30.71.05-10.57 1.36-21.18 3.44-31.54.95-4.73 7.65-5.64 11.62-5.99 2.68-.24 6.02-.03 8.58.92.96.35 4.05 1.74 3.77 3.4-2.03 11.74-5.03 23.31-6.54 35.14-1.36 10.6-2.27 22.11-.24 32.67.03.33.1.65.19.96.79-.64 1.76-1.46 1.89-1.58 1.73-1.71 3.24-3.62 4.61-5.62 2.82-4.12 5.03-8.62 7.16-13.12 3.04-6.4 5.85-12.93 7.93-19.69.24-5.6.86-11.17 1.87-16.71.89-4.87 7.96-5.81 11.97-6.17 2.3-.21 5.07-.08 7.46.53-.93-7.91-.59-17.19 3.01-24.38 1.7-3.4 4.27-6.63 8.16-7.46 3.75-.79 7.16.3 8.79 3.88 3.81 8.42 2.18 19.49 1.41 28.38-.63 7.17-1.54 14.32-2.83 21.39 5.47 5.14 12.4 8.73 19.72 10.33 1.17.27 2.43.85 1.45 2.07zm-28.89-11.9c-2.8-2.82-5.18-6.04-7.01-9.59-1.25 7.47-2.46 14.97-2.95 22.53-.34 5.21-.6 10.42-.32 15.64.05.83.05 2.08.11 3.43.36-.65.7-1.3 1.02-1.96 1.34-2.72 2.43-5.56 3.42-8.43 2.29-6.66 4.08-13.49 5.48-20.38.09-.42.17-.83.25-1.24zm4.01-35.41c0-3.14-.17-6.3-.72-9.39-.25-1.39-.56-2.82-1.12-4.12-.08-.19-.29-.51-.47-.83-.77 1.06-2.02 2.65-2.22 3.02-.56 1.06-1.03 2.18-1.42 3.32-.86 2.47-1.31 5.07-1.58 7.66-1 9.63-.02 19.42 5 27.69 1.52-9.05 2.54-18.29 2.53-27.35z" fill="#f20487"/>
 <path class="ast0" d="M291.35 99.04c-4.2 10.33-8.89 20.4-15.36 29.52-5.28 7.45-11.9 16.13-21.97 15.72-11.82-.48-14.74-13.45-16.93-22.82-2.52-10.76-4.13-21.94-3.9-33.02.25-11.47.82-23.16 3.78-34.29.57-2.15 4.26-3.33 6.11-4 2.75-1 5.87-1.29 8.78-1.32 2.73-.03 5.46.22 8.06 1.08 1.42.47 4.38 1.94 4.35 3.93-.19 11.1-2.42 22.14-3.22 33.22-.71 9.82-1.71 19.61-1.76 29.47-.03 4.87.16 9.75.31 14.61.06 1.81.11 3.64.28 5.44.03.33.06.69.11 1.04.4-.35.79-.7 1.18-1.06 1.47-1.34 2.88-2.75 4.22-4.21 3.01-3.27 5.57-6.85 7.9-10.62 4.49-7.29 8.03-15.12 11.33-23.01.79-1.92 7.56-1.75 6.73.32zm-53.63-70.73c-1.68-4.3-2.92-10.39.59-14.18 2.94-3.18 9.17-4.05 12.74-1.48 1.45 1.04 2.31 2.65 2.86 4.45.84-.8 1.74-1.5 2.71-2.06 2.79-1.61 9.25-3.18 11.08.57 2.02 4.16-.95 9.38-3.53 12.46-3.11 3.72-6.81 6.97-10.87 9.63-.42.27-.87.5-1.35.68-.04.37-.35.76-.88 1.09-1.37.85-3.58.85-5.07.35-4.55-1.53-6.68-7.42-8.28-11.51z" fill="#f20487"/>
 <path class="ast0" d="M345.2 99.01c-3.12 12.05-8.75 23.78-17.21 33.01-7.41 8.09-19.19 13.36-29.72 7.47-5.08-2.84-7.1-8.16-8.66-13.44-1.8-6.11-3.08-12.42-3.92-18.73-1.65-12.42-2.02-24.78-1.99-37.3.01-6.35.27-12.69.49-19.04.02-.69.05-1.38.07-2.07-1.78.33-3.55.67-5.33 1.01-1.06.2-4.11.47-4.78-.82-.71-1.38 1.59-2.02 2.53-2.21 2.57-.51 5.15-1.03 7.72-1.55.19-4.51.5-8.97 1.3-13.47.96-5.37 8.79-6.41 13.2-6.8 3.69-.33 13.29-.24 14.01 4.9.45 3.22.59 6.4.56 9.58 2.33-.44 4.65-.87 6.99-1.28 1.11-.2 4.3-.51 5.01.86.75 1.45-1.67 2.1-2.65 2.31-3.14.67-6.29 1.31-9.44 1.94-.07 1.85-.17 3.71-.27 5.58-.34 6.18-.68 12.34-1.17 18.51-.85 10.97-1.55 21.98-2 32.97-.23 5.57-.31 11.16-.37 16.73-.06 5.02-.3 10.22.48 15.19.29 1.83.65 3.46 1.36 5.17.03.07.15.32.28.55.09-.06.22-.13.33-.27.53-.67 2.51-1.33 3.31-1.9 3.91-2.81 7.16-6.43 9.99-10.31 5.9-8.12 10.3-17.3 13.15-26.92.56-1.89 7.33-1.98 6.73.33z" fill="#f20487"/>
 <path class="ast0" d="M399.15 99.01c-3.12 12.05-8.75 23.78-17.21 33.01-7.41 8.09-19.19 13.36-29.72 7.47-5.08-2.84-7.1-8.16-8.66-13.44-1.8-6.11-3.08-12.42-3.92-18.73-1.65-12.42-2.02-24.78-1.99-37.3.01-6.35.27-12.69.49-19.04.02-.69.05-1.38.07-2.07-1.78.33-3.55.67-5.33 1.01-1.06.2-4.11.47-4.78-.82-.71-1.38 1.59-2.02 2.53-2.21 2.57-.51 5.15-1.03 7.72-1.55.19-4.51.5-8.97 1.3-13.47.96-5.37 8.79-6.41 13.2-6.8 3.69-.33 13.29-.24 14.01 4.9.45 3.22.59 6.4.56 9.58 2.33-.44 4.65-.87 6.99-1.28 1.11-.2 4.3-.51 5.01.86.75 1.45-1.67 2.1-2.65 2.31-3.14.67-6.29 1.31-9.44 1.94-.07 1.85-.17 3.71-.27 5.58-.34 6.18-.68 12.34-1.17 18.51-.85 10.97-1.55 21.98-2 32.97-.23 5.57-.31 11.16-.37 16.73-.06 5.02-.3 10.22.48 15.19.29 1.83.65 3.46 1.36 5.17.03.07.15.32.28.55.09-.06.22-.13.33-.27.53-.67 2.51-1.33 3.31-1.9 3.91-2.81 7.16-6.43 9.99-10.31 5.9-8.12 10.3-17.3 13.14-26.92.57-1.89 7.34-1.98 6.74.33z" fill="#f20487"/>
 <path class="ast0" d="M453.59 100.78c-4.81 15.99-14.73 33.47-29.93 41.54-4.54 2.41-8.92 3.33-14.11 2.27-4.49-.92-7.69-3.66-10.12-7.4-4.85-7.47-6.52-16.95-7.69-25.63-2.23-16.57.22-35.39 8.52-50.1 4.02-7.13 11.15-12.78 19.22-14.63 3.67-.84 8.41-1.15 11.29 1.76 2.31 2.34 2.63 5.94 2.61 9.07-.13 15.15-8.18 29.1-17.8 40.33.02 5.1.22 10.19.62 15.24.56 7.08 1.35 14.52 3.08 21.42.34 1.34.83 2.55 1.34 3.8.73-.43 1.54-.81 2.17-1.28 1.3-.95 2.52-1.99 3.7-3.08 9.69-8.99 16.42-21.11 20.37-33.62.6-1.93 7.4-1.94 6.73.31zM415.8 87.71c5.7-8.72 9.75-18.62 9.93-29.04.03-1.62-.01-3.27-.55-4.81a8.13 8.13 0 0 0-1.11-2.15c-.33.35-.62.67-.71.84-.52.95-.83 1.96-1.27 2.95-2.27 5.13-4.08 9.86-4.82 15.48-.72 5.53-1.21 11.12-1.47 16.73z" fill="#f20487"/>
 <path class="ast0" d="M523.93 92.68c-8.55 7.06-29.66 20.31-35.83 4.04-2.86-7.54-3.68-16.01-4.08-24-.21-4.2-.2-8.41-.3-12.61-.05-1.95-.13-3.91-.34-5.85-.01-.13-.03-.37-.06-.66-.9 1.87-1.74 3.76-2.53 5.67-1.5 3.65-2.78 7.39-3.89 11.18-1.37 4.64-2.5 9.31-3.38 14.02-.01 1.88-.03 3.76-.06 5.64-.11 7.06-.32 14.2-1 21.23-.34 3.57-.64 7.13-1.21 10.67-.54 3.36-.73 6.81-2.36 9.86-2.13 3.96-12.48 4.36-15.24 1.07-2.4-2.86-2.83-6.49-3.54-10.03-.7-3.46-1.07-6.97-1.53-10.47-.89-6.75-1.3-13.65-1.64-20.45-.34-7.03-.56-14.07-.84-21.1-.28-7.04-.74-14.14.02-21.16.57-5.26 8.94-6.32 12.96-6.68 3.64-.32 13.03-.23 13.77 4.81.47 3.28.67 6.59.75 9.91.91-2.1 1.88-4.17 2.92-6.19 1.74-3.37 4.08-5.62 8.02-5.94 1.66-.13 3.89-.04 5.01 1.39 1.11 1.42 1.21 3.94 1.43 5.65.58 4.62.42 9.3.49 13.95.15 9.56.66 19.67 3.82 28.78.61 1.76 1.69 4.57 3.53 5.42 2.14.99 5.22-.89 7.16-1.83 4.15-2 7.98-4.51 11.54-7.43 1.24-1.02 3.43-1.23 4.94-.91.9.16 2.75.96 1.47 2.02z" fill="#f20487"/>
 </symbol>
</svg>
